<mxfile host="app.diagrams.net" agent="Mozilla/5.0 (Macintosh; Intel Mac OS X 10_15_7) AppleWebKit/537.36 (KHTML, like Gecko) Chrome/134.0.0.0 Safari/537.36" version="26.1.1">
  <diagram id="6axjnHBhWlER1rCjbywu" name="PÃ¡gina-1">
    <mxGraphModel dx="2668" dy="1742" grid="0" gridSize="10" guides="1" tooltips="1" connect="1" arrows="1" fold="1" page="0" pageScale="1" pageWidth="827" pageHeight="1169" background="none" math="0" shadow="0">
      <root>
        <mxCell id="0" />
        <mxCell id="1" parent="0" />
        <mxCell id="node9" value="&lt;p style=&quot;margin:0px;margin-top:4px;text-align:center;&quot;&gt;&lt;b&gt;Agency&lt;/b&gt;&lt;/p&gt;&lt;hr size=&quot;1&quot;/&gt;&lt;p style=&quot;margin:0 0 0 4px;line-height:1.6;&quot;&gt;+ Agency(int, String, String, String, String): &lt;br/&gt;+ Agency(): &lt;/p&gt;&lt;hr size=&quot;1&quot;/&gt;&lt;p style=&quot;margin:0 0 0 4px;line-height:1.6;&quot;&gt;+ toString(): String&lt;/p&gt;&lt;hr size=&quot;1&quot;/&gt;&lt;p style=&quot;margin:0 0 0 4px;line-height:1.6;&quot;&gt; agencyName: String&lt;br/&gt; address: String&lt;br/&gt; email: String&lt;br/&gt; phone: String&lt;br/&gt; agencyId: int&lt;/p&gt;" style="verticalAlign=top;align=left;overflow=fill;fontSize=14;fontFamily=Helvetica;html=1;rounded=0;shadow=0;comic=0;labelBackgroundColor=none;strokeWidth=1;" parent="1" vertex="1">
          <mxGeometry x="1000" y="350" width="280" height="250" as="geometry" />
        </mxCell>
        <mxCell id="node11" value="&lt;p style=&quot;margin:0px;margin-top:4px;text-align:center;&quot;&gt;&lt;b&gt;Booking&lt;/b&gt;&lt;/p&gt;&lt;hr size=&quot;1&quot;&gt;&lt;p style=&quot;margin:0 0 0 4px;line-height:1.6;&quot;&gt;+ Booking(int, Guest, Room, int, int,&amp;nbsp;&lt;/p&gt;&lt;p style=&quot;margin:0 0 0 4px;line-height:1.6;&quot;&gt;LocalDate, LocalDate, double, Status, PaymentEnum, Agency): &lt;br&gt;+ Booking(): &lt;br&gt;+ Booking(int, Guest, Room, int, int,&amp;nbsp;&lt;/p&gt;&lt;p style=&quot;margin:0 0 0 4px;line-height:1.6;&quot;&gt;LocalDate, LocalDate, double, String, String, Agency): &lt;/p&gt;&lt;hr size=&quot;1&quot;&gt;&lt;p style=&quot;margin:0 0 0 4px;line-height:1.6;&quot;&gt;+ toString(): String&lt;/p&gt;&lt;hr size=&quot;1&quot;&gt;&lt;p style=&quot;margin:0 0 0 4px;line-height:1.6;&quot;&gt; room: Room&lt;br&gt; bookingNo: int&lt;br&gt; guest: Guest&lt;br&gt; occupants: int&lt;br&gt; total: double&lt;br&gt; checkIn: LocalDate&lt;br&gt; checkOut: LocalDate&lt;br&gt; agency: Agency&lt;br&gt; nights: int&lt;br&gt; payment: PaymentEnum&lt;br&gt; status: Status&lt;/p&gt;" style="verticalAlign=top;align=left;overflow=fill;fontSize=14;fontFamily=Helvetica;html=1;rounded=0;shadow=0;comic=0;labelBackgroundColor=none;strokeWidth=1;" parent="1" vertex="1">
          <mxGeometry x="499.5" y="350" width="417" height="450" as="geometry" />
        </mxCell>
        <mxCell id="node10" value="&lt;p style=&quot;margin:0px;margin-top:4px;text-align:center;&quot;&gt;&lt;b&gt;Department&lt;/b&gt;&lt;/p&gt;&lt;hr size=&quot;1&quot;/&gt;&lt;p style=&quot;margin:0 0 0 4px;line-height:1.6;&quot;&gt;+ Department(String, String): &lt;br/&gt;+ Department(): &lt;/p&gt;&lt;hr size=&quot;1&quot;/&gt;&lt;p style=&quot;margin:0 0 0 4px;line-height:1.6;&quot;&gt;+ toString(): String&lt;/p&gt;&lt;hr size=&quot;1&quot;/&gt;&lt;p style=&quot;margin:0 0 0 4px;line-height:1.6;&quot;&gt; deptName: String&lt;br/&gt; deptNo: String&lt;/p&gt;" style="verticalAlign=top;align=left;overflow=fill;fontSize=14;fontFamily=Helvetica;html=1;rounded=0;shadow=0;comic=0;labelBackgroundColor=none;strokeWidth=1;" parent="1" vertex="1">
          <mxGeometry x="1360" y="-80" width="260" height="190" as="geometry" />
        </mxCell>
        <mxCell id="VhacFmpfINvfAiVfSPhy-5" value="" style="edgeStyle=orthogonalEdgeStyle;rounded=0;orthogonalLoop=1;jettySize=auto;html=1;" edge="1" parent="1" source="node3" target="node0">
          <mxGeometry relative="1" as="geometry" />
        </mxCell>
        <mxCell id="node3" value="&lt;p style=&quot;margin:0px;margin-top:4px;text-align:center;&quot;&gt;&lt;b&gt;DeptEmp&lt;/b&gt;&lt;/p&gt;&lt;hr size=&quot;1&quot;&gt;&lt;p style=&quot;margin:0 0 0 4px;line-height:1.6;&quot;&gt;+ DeptEmp(): &lt;br&gt;+ DeptEmp(Employee, Department,&amp;nbsp;&lt;/p&gt;&lt;p style=&quot;margin:0 0 0 4px;line-height:1.6;&quot;&gt;LocalDate, LocalDate): &lt;/p&gt;&lt;hr size=&quot;1&quot;&gt;&lt;p style=&quot;margin:0 0 0 4px;line-height:1.6;&quot;&gt;+ toString(): String&lt;/p&gt;&lt;hr size=&quot;1&quot;&gt;&lt;p style=&quot;margin:0 0 0 4px;line-height:1.6;&quot;&gt; department: Department&lt;br&gt; toDate: LocalDate&lt;br&gt; fromDate: LocalDate&lt;br&gt; employee: Employee&lt;/p&gt;" style="verticalAlign=top;align=left;overflow=fill;fontSize=14;fontFamily=Helvetica;html=1;rounded=0;shadow=0;comic=0;labelBackgroundColor=none;strokeWidth=1;" parent="1" vertex="1">
          <mxGeometry x="1000" y="-80" width="260" height="260" as="geometry" />
        </mxCell>
        <mxCell id="node8" value="&lt;p style=&quot;margin:0px;margin-top:4px;text-align:center;&quot;&gt;&lt;b&gt;DeptManager&lt;/b&gt;&lt;/p&gt;&lt;hr size=&quot;1&quot;&gt;&lt;p style=&quot;margin:0 0 0 4px;line-height:1.6;&quot;&gt;+ DeptManager(Employee, Department,&amp;nbsp;&lt;/p&gt;&lt;p style=&quot;margin:0 0 0 4px;line-height:1.6;&quot;&gt;LocalDate, LocalDate): &lt;br&gt;+ DeptManager(): &lt;/p&gt;&lt;hr size=&quot;1&quot;&gt;&lt;p style=&quot;margin:0 0 0 4px;line-height:1.6;&quot;&gt;+ toString(): String&lt;/p&gt;&lt;hr size=&quot;1&quot;&gt;&lt;p style=&quot;margin:0 0 0 4px;line-height:1.6;&quot;&gt; department: Department&lt;br&gt; toDate: LocalDate&lt;br&gt; fromDate: LocalDate&lt;br&gt; employee: Employee&lt;/p&gt;" style="verticalAlign=top;align=left;overflow=fill;fontSize=14;fontFamily=Helvetica;html=1;rounded=0;shadow=0;comic=0;labelBackgroundColor=none;strokeWidth=1;" parent="1" vertex="1">
          <mxGeometry x="1360" y="-470" width="260" height="260" as="geometry" />
        </mxCell>
        <mxCell id="node0" value="&lt;p style=&quot;margin:0px;margin-top:4px;text-align:center;&quot;&gt;&lt;b&gt;Employee&lt;/b&gt;&lt;/p&gt;&lt;hr size=&quot;1&quot;&gt;&lt;p style=&quot;margin:0 0 0 4px;line-height:1.6;&quot;&gt;+ Employee(): &lt;br&gt;+ Employee(int, String, String, String,&amp;nbsp;&lt;/p&gt;&lt;p style=&quot;margin:0 0 0 4px;line-height:1.6;&quot;&gt;LocalDate, LocalDate, User): &lt;/p&gt;&lt;hr size=&quot;1&quot;&gt;&lt;p style=&quot;margin:0 0 0 4px;line-height:1.6;&quot;&gt;+ toString(): String&lt;/p&gt;&lt;hr size=&quot;1&quot;&gt;&lt;p style=&quot;margin:0 0 0 4px;line-height:1.6;&quot;&gt; lastName: String&lt;br&gt; gender: String&lt;br&gt; empNo: int&lt;br&gt; firstName: String&lt;br&gt; fullName: String&lt;br&gt; birthDate: LocalDate&lt;br&gt; hireDate: LocalDate&lt;br&gt; user: User&lt;/p&gt;" style="verticalAlign=top;align=left;overflow=fill;fontSize=14;fontFamily=Helvetica;html=1;rounded=0;shadow=0;comic=0;labelBackgroundColor=none;strokeWidth=1;" parent="1" vertex="1">
          <mxGeometry x="1000" y="-470" width="260" height="340" as="geometry" />
        </mxCell>
        <mxCell id="node6" value="&lt;p style=&quot;margin:0px;margin-top:4px;text-align:center;&quot;&gt;&lt;b&gt;Guest&lt;/b&gt;&lt;/p&gt;&lt;hr size=&quot;1&quot;&gt;&lt;p style=&quot;margin:0 0 0 4px;line-height:1.6;&quot;&gt;+ Guest(int, User, String, String, String,&amp;nbsp;&lt;span style=&quot;background-color: transparent; color: light-dark(rgb(0, 0, 0), rgb(255, 255, 255));&quot;&gt;String, String,&lt;/span&gt;&lt;span style=&quot;background-color: transparent; color: light-dark(rgb(0, 0, 0), rgb(255, 255, 255));&quot;&gt;&amp;nbsp;&lt;/span&gt;&lt;/p&gt;&lt;p style=&quot;margin:0 0 0 4px;line-height:1.6;&quot;&gt;&lt;span style=&quot;background-color: transparent; color: light-dark(rgb(0, 0, 0), rgb(255, 255, 255));&quot;&gt;GuestStatus):&lt;/span&gt;&lt;/p&gt;&lt;p style=&quot;margin:0 0 0 4px;line-height:1.6;&quot;&gt;+ Guest(int, User, String, String,&amp;nbsp;&lt;span style=&quot;background-color: transparent; color: light-dark(rgb(0, 0, 0), rgb(255, 255, 255));&quot;&gt;String, String, String, String):&lt;/span&gt;&lt;/p&gt;&lt;p style=&quot;margin:0 0 0 4px;line-height:1.6;&quot;&gt;+ Guest(): &lt;/p&gt;&lt;hr size=&quot;1&quot;&gt;&lt;p style=&quot;margin:0 0 0 4px;line-height:1.6;&quot;&gt;+ toString(): String&lt;/p&gt;&lt;hr size=&quot;1&quot;&gt;&lt;p style=&quot;margin:0 0 0 4px;line-height:1.6;&quot;&gt;- idNumber: String&lt;br&gt;- lastName: String&lt;br&gt;- phoneNumber: String&lt;br&gt;- firstName: String&lt;br&gt;- address: String&lt;br&gt;- user: User&lt;br&gt;- status: GuestStatus&lt;br&gt;- guestNo: int&lt;/p&gt;" style="verticalAlign=top;align=left;overflow=fill;fontSize=14;fontFamily=Helvetica;html=1;rounded=0;shadow=0;comic=0;labelBackgroundColor=none;strokeWidth=1;" parent="1" vertex="1">
          <mxGeometry x="500" y="-110" width="416.5" height="370" as="geometry" />
        </mxCell>
        <mxCell id="node1" value="&lt;p style=&quot;margin:0px;margin-top:4px;text-align:center;&quot;&gt;&lt;b&gt;Invoice&lt;/b&gt;&lt;/p&gt;&lt;hr size=&quot;1&quot;&gt;&lt;p style=&quot;margin:0 0 0 4px;line-height:1.6;&quot;&gt;+ Invoice(): &lt;br&gt;+ Invoice(int, Booking, LocalDateTime, double,&amp;nbsp;&lt;/p&gt;&lt;p style=&quot;margin:0 0 0 4px;line-height:1.6;&quot;&gt;double, double, InvoiceStatus, InvoicePaymentMethod): &lt;br&gt;+ Invoice(int, Booking, LocalDateTime,&amp;nbsp;&lt;/p&gt;&lt;p style=&quot;margin:0 0 0 4px;line-height:1.6;&quot;&gt;double, double, double, String, String): &lt;/p&gt;&lt;hr size=&quot;1&quot;&gt;&lt;p style=&quot;margin:0 0 0 4px;line-height:1.6;&quot;&gt;+ toString(): String&lt;br&gt;+ addItem(InvoiceItem): void&lt;br&gt;+ removeItem(InvoiceItem): void&lt;/p&gt;&lt;hr size=&quot;1&quot;&gt;&lt;p style=&quot;margin:0 0 0 4px;line-height:1.6;&quot;&gt; grandTotal: double&lt;br&gt; status: InvoiceStatus&lt;br&gt; totalAmount: double&lt;br&gt; booking: Booking&lt;br&gt; paymentMethod: InvoicePaymentMethod&lt;br&gt; invoiceDate: LocalDateTime&lt;br&gt; taxAmount: double&lt;br&gt; items: List&amp;lt;InvoiceItem&amp;gt;&lt;br&gt; invoiceId: int&lt;/p&gt;" style="verticalAlign=top;align=left;overflow=fill;fontSize=14;fontFamily=Helvetica;html=1;rounded=0;shadow=0;comic=0;labelBackgroundColor=none;strokeWidth=1;" parent="1" vertex="1">
          <mxGeometry x="500" y="860" width="420" height="460" as="geometry" />
        </mxCell>
        <mxCell id="node7" value="&lt;p style=&quot;margin:0px;margin-top:4px;text-align:center;&quot;&gt;&lt;b&gt;InvoiceItem&lt;/b&gt;&lt;/p&gt;&lt;hr size=&quot;1&quot;&gt;&lt;p style=&quot;margin:0 0 0 4px;line-height:1.6;&quot;&gt;+ InvoiceItem(Service, String, int, double, double): &lt;br&gt;+ InvoiceItem(): &lt;/p&gt;&lt;hr size=&quot;1&quot;&gt;&lt;p style=&quot;margin:0 0 0 4px;line-height:1.6;&quot;&gt;+ toString(): String&lt;/p&gt;&lt;hr size=&quot;1&quot;&gt;&lt;p style=&quot;margin:0 0 0 4px;line-height:1.6;&quot;&gt; description: String&lt;br&gt; quantity: int&lt;br&gt; unitPrice: double&lt;br&gt; totalPrice: double&lt;br&gt;service : Service&lt;/p&gt;" style="verticalAlign=top;align=left;overflow=fill;fontSize=14;fontFamily=Helvetica;html=1;rounded=0;shadow=0;comic=0;labelBackgroundColor=none;strokeWidth=1;" parent="1" vertex="1">
          <mxGeometry x="114.5" y="860" width="313" height="269" as="geometry" />
        </mxCell>
        <mxCell id="node5" value="&lt;p style=&quot;margin:0px;margin-top:4px;text-align:center;&quot;&gt;&lt;b&gt;Notification&lt;/b&gt;&lt;/p&gt;&lt;hr size=&quot;1&quot;/&gt;&lt;p style=&quot;margin:0 0 0 4px;line-height:1.6;&quot;&gt;+ Notification(): &lt;/p&gt;" style="verticalAlign=top;align=left;overflow=fill;fontSize=14;fontFamily=Helvetica;html=1;rounded=0;shadow=0;comic=0;labelBackgroundColor=none;strokeWidth=1;" parent="1" vertex="1">
          <mxGeometry x="-870" y="520" width="141" height="58" as="geometry" />
        </mxCell>
        <mxCell id="node4" value="&lt;p style=&quot;margin:0px;margin-top:4px;text-align:center;&quot;&gt;&lt;b&gt;Payment&lt;/b&gt;&lt;/p&gt;&lt;hr size=&quot;1&quot;/&gt;&lt;p style=&quot;margin:0 0 0 4px;line-height:1.6;&quot;&gt;+ Payment(): &lt;/p&gt;" style="verticalAlign=top;align=left;overflow=fill;fontSize=14;fontFamily=Helvetica;html=1;rounded=0;shadow=0;comic=0;labelBackgroundColor=none;strokeWidth=1;" parent="1" vertex="1">
          <mxGeometry x="-859.5" y="730" width="120" height="58" as="geometry" />
        </mxCell>
        <mxCell id="node13" value="&lt;p style=&quot;margin:0px;margin-top:4px;text-align:center;&quot;&gt;&lt;b&gt;Room&lt;/b&gt;&lt;/p&gt;&lt;hr size=&quot;1&quot;/&gt;&lt;p style=&quot;margin:0 0 0 4px;line-height:1.6;&quot;&gt;+ Room(int, String, String, RoomStatus): &lt;br/&gt;+ Room(int, String, String, String): &lt;br/&gt;+ Room(): &lt;/p&gt;&lt;hr size=&quot;1&quot;/&gt;&lt;p style=&quot;margin:0 0 0 4px;line-height:1.6;&quot;&gt;+ toString(): String&lt;/p&gt;&lt;hr size=&quot;1&quot;/&gt;&lt;p style=&quot;margin:0 0 0 4px;line-height:1.6;&quot;&gt; description: String&lt;br/&gt; status: RoomStatus&lt;br/&gt; roomNo: int&lt;br/&gt; roomType: String&lt;/p&gt;" style="verticalAlign=top;align=left;overflow=fill;fontSize=14;fontFamily=Helvetica;html=1;rounded=0;shadow=0;comic=0;labelBackgroundColor=none;strokeWidth=1;" parent="1" vertex="1">
          <mxGeometry x="130" y="350" width="282" height="260" as="geometry" />
        </mxCell>
        <mxCell id="node14" value="&lt;p style=&quot;margin:0px;margin-top:4px;text-align:center;&quot;&gt;&lt;b&gt;User&lt;/b&gt;&lt;/p&gt;&lt;hr size=&quot;1&quot;/&gt;&lt;p style=&quot;margin:0 0 0 4px;line-height:1.6;&quot;&gt;+ User(): &lt;br/&gt;+ User(int, String, String, UserRole): &lt;br/&gt;+ User(int, String, String, String): &lt;/p&gt;&lt;hr size=&quot;1&quot;/&gt;&lt;p style=&quot;margin:0 0 0 4px;line-height:1.6;&quot;&gt;+ toString(): String&lt;/p&gt;&lt;hr size=&quot;1&quot;/&gt;&lt;p style=&quot;margin:0 0 0 4px;line-height:1.6;&quot;&gt; passwordHash: String&lt;br/&gt; userRoleString: String&lt;br/&gt; userNo: int&lt;br/&gt; userRole: UserRole&lt;br/&gt; email: String&lt;/p&gt;" style="verticalAlign=top;align=left;overflow=fill;fontSize=14;fontFamily=Helvetica;html=1;rounded=0;shadow=0;comic=0;labelBackgroundColor=none;strokeWidth=1;" parent="1" vertex="1">
          <mxGeometry x="500" y="-470" width="420" height="280" as="geometry" />
        </mxCell>
        <mxCell id="VhacFmpfINvfAiVfSPhy-1" value="" style="endArrow=classic;html=1;rounded=0;exitX=0.5;exitY=0;exitDx=0;exitDy=0;entryX=0.5;entryY=1;entryDx=0;entryDy=0;" edge="1" parent="1" source="node6" target="node14">
          <mxGeometry width="50" height="50" relative="1" as="geometry">
            <mxPoint x="916.5009999999999" y="-89.21999999999994" as="sourcePoint" />
            <mxPoint x="930" y="-120" as="targetPoint" />
          </mxGeometry>
        </mxCell>
        <mxCell id="VhacFmpfINvfAiVfSPhy-2" value="" style="endArrow=classic;html=1;rounded=0;exitX=-0.003;exitY=0.05;exitDx=0;exitDy=0;exitPerimeter=0;entryX=1.001;entryY=0.061;entryDx=0;entryDy=0;entryPerimeter=0;" edge="1" parent="1" source="node0" target="node14">
          <mxGeometry width="50" height="50" relative="1" as="geometry">
            <mxPoint x="1200" y="-34" as="sourcePoint" />
            <mxPoint x="1280" y="-90" as="targetPoint" />
          </mxGeometry>
        </mxCell>
        <mxCell id="VhacFmpfINvfAiVfSPhy-4" value="" style="endArrow=classic;html=1;rounded=0;entryX=-0.003;entryY=0.09;entryDx=0;entryDy=0;exitX=1.01;exitY=0.061;exitDx=0;exitDy=0;exitPerimeter=0;entryPerimeter=0;" edge="1" parent="1" source="node3" target="node10">
          <mxGeometry width="50" height="50" relative="1" as="geometry">
            <mxPoint x="1550" y="560" as="sourcePoint" />
            <mxPoint x="1499.23" y="540" as="targetPoint" />
          </mxGeometry>
        </mxCell>
        <mxCell id="VhacFmpfINvfAiVfSPhy-8" value="" style="endArrow=classic;html=1;rounded=0;entryX=0.5;entryY=1;entryDx=0;entryDy=0;exitX=0.5;exitY=0;exitDx=0;exitDy=0;" edge="1" parent="1" source="node11" target="node6">
          <mxGeometry width="50" height="50" relative="1" as="geometry">
            <mxPoint x="630" y="314.58" as="sourcePoint" />
            <mxPoint x="739" y="314.58" as="targetPoint" />
          </mxGeometry>
        </mxCell>
        <mxCell id="VhacFmpfINvfAiVfSPhy-9" value="" style="endArrow=classic;html=1;rounded=0;entryX=1.001;entryY=0.061;entryDx=0;entryDy=0;entryPerimeter=0;" edge="1" parent="1">
          <mxGeometry width="50" height="50" relative="1" as="geometry">
            <mxPoint x="499.5" y="360" as="sourcePoint" />
            <mxPoint x="411.5" y="360" as="targetPoint" />
          </mxGeometry>
        </mxCell>
        <mxCell id="VhacFmpfINvfAiVfSPhy-12" value="" style="endArrow=classic;html=1;rounded=0;entryX=0.5;entryY=0;entryDx=0;entryDy=0;exitX=0.5;exitY=1;exitDx=0;exitDy=0;" edge="1" parent="1" source="node11" target="node1">
          <mxGeometry width="50" height="50" relative="1" as="geometry">
            <mxPoint x="718" y="830" as="sourcePoint" />
            <mxPoint x="630" y="830" as="targetPoint" />
          </mxGeometry>
        </mxCell>
        <mxCell id="VhacFmpfINvfAiVfSPhy-13" value="" style="rhombus;whiteSpace=wrap;html=1;fillColor=#4D4D4D;" vertex="1" parent="1">
          <mxGeometry x="470" y="860" width="30" height="30" as="geometry" />
        </mxCell>
        <mxCell id="VhacFmpfINvfAiVfSPhy-15" value="" style="endArrow=none;html=1;rounded=0;exitX=0;exitY=0.5;exitDx=0;exitDy=0;entryX=0.998;entryY=0.055;entryDx=0;entryDy=0;entryPerimeter=0;" edge="1" parent="1" source="VhacFmpfINvfAiVfSPhy-13" target="node7">
          <mxGeometry width="50" height="50" relative="1" as="geometry">
            <mxPoint x="460" y="1060" as="sourcePoint" />
            <mxPoint x="510" y="1010" as="targetPoint" />
          </mxGeometry>
        </mxCell>
        <mxCell id="VhacFmpfINvfAiVfSPhy-17" value="&lt;p style=&quot;margin:0px;margin-top:4px;text-align:center;&quot;&gt;&lt;b&gt;Service&lt;/b&gt;&lt;/p&gt;&lt;hr size=&quot;1&quot;/&gt;&lt;p style=&quot;margin:0 0 0 4px;line-height:1.6;&quot;&gt;+ Service(): &lt;br/&gt;+ Service(int, String, double, String): &lt;/p&gt;&lt;hr size=&quot;1&quot;/&gt;&lt;p style=&quot;margin:0 0 0 4px;line-height:1.6;&quot;&gt;- price: double&lt;br/&gt;- name: String&lt;br/&gt;- description: String&lt;br/&gt;- serviceId: int&lt;/p&gt;&lt;hr size=&quot;1&quot;/&gt;&lt;p style=&quot;margin:0 0 0 4px;line-height:1.6;&quot;&gt;+ toString(): String&lt;/p&gt;&lt;hr size=&quot;1&quot;/&gt;&lt;p style=&quot;margin:0 0 0 4px;line-height:1.6;&quot;&gt; name: String&lt;br/&gt; description: String&lt;br/&gt; serviceId: int&lt;br/&gt; price: double&lt;/p&gt;" style="verticalAlign=top;align=left;overflow=fill;fontSize=14;fontFamily=Helvetica;html=1;rounded=0;shadow=0;comic=0;labelBackgroundColor=none;strokeWidth=1;" vertex="1" parent="1">
          <mxGeometry x="114.5" y="1170" width="315.5" height="310" as="geometry" />
        </mxCell>
        <mxCell id="VhacFmpfINvfAiVfSPhy-18" value="" style="endArrow=classic;html=1;rounded=0;entryX=0.5;entryY=1;entryDx=0;entryDy=0;exitX=0.5;exitY=0;exitDx=0;exitDy=0;" edge="1" parent="1" source="VhacFmpfINvfAiVfSPhy-17" target="node7">
          <mxGeometry width="50" height="50" relative="1" as="geometry">
            <mxPoint x="400" y="1110" as="sourcePoint" />
            <mxPoint x="402" y="1170" as="targetPoint" />
          </mxGeometry>
        </mxCell>
        <mxCell id="VhacFmpfINvfAiVfSPhy-19" value="" style="endArrow=classic;html=1;rounded=0;exitX=0.5;exitY=1;exitDx=0;exitDy=0;" edge="1" parent="1" source="node8" target="node10">
          <mxGeometry width="50" height="50" relative="1" as="geometry">
            <mxPoint x="1273" y="-54" as="sourcePoint" />
            <mxPoint x="1369" y="-53" as="targetPoint" />
          </mxGeometry>
        </mxCell>
        <mxCell id="VhacFmpfINvfAiVfSPhy-20" value="" style="endArrow=classic;html=1;rounded=0;entryX=1.001;entryY=0.052;entryDx=0;entryDy=0;exitX=0.01;exitY=0.072;exitDx=0;exitDy=0;exitPerimeter=0;entryPerimeter=0;" edge="1" parent="1" source="node8" target="node0">
          <mxGeometry width="50" height="50" relative="1" as="geometry">
            <mxPoint x="1273" y="-54" as="sourcePoint" />
            <mxPoint x="1369" y="-53" as="targetPoint" />
          </mxGeometry>
        </mxCell>
        <mxCell id="VhacFmpfINvfAiVfSPhy-21" value="" style="endArrow=classic;html=1;rounded=0;entryX=0;entryY=0.022;entryDx=0;entryDy=0;entryPerimeter=0;exitX=0.999;exitY=0.012;exitDx=0;exitDy=0;exitPerimeter=0;" edge="1" parent="1" source="node11" target="node9">
          <mxGeometry width="50" height="50" relative="1" as="geometry">
            <mxPoint x="916.4959999999998" y="350.00000000000006" as="sourcePoint" />
            <mxPoint x="1002.7900000000001" y="351.55" as="targetPoint" />
          </mxGeometry>
        </mxCell>
        <mxCell id="VhacFmpfINvfAiVfSPhy-22" value="&lt;p style=&quot;margin:0px;margin-top:4px;text-align:center;&quot;&gt;&lt;b&gt;Payment&lt;/b&gt;&lt;/p&gt;&lt;hr size=&quot;1&quot;&gt;&lt;p style=&quot;margin:0 0 0 4px;line-height:1.6;&quot;&gt;+ Agency(int, String, String, String, String): &lt;br&gt;+ Agency(): &lt;/p&gt;&lt;hr size=&quot;1&quot;&gt;&lt;p style=&quot;margin:0 0 0 4px;line-height:1.6;&quot;&gt;+ toString(): String&lt;/p&gt;&lt;hr size=&quot;1&quot;&gt;&lt;p style=&quot;margin:0 0 0 4px;line-height:1.6;&quot;&gt; agencyName: String&lt;br&gt; address: String&lt;br&gt; email: String&lt;br&gt; phone: String&lt;br&gt; agencyId: int&lt;/p&gt;" style="verticalAlign=top;align=left;overflow=fill;fontSize=14;fontFamily=Helvetica;html=1;rounded=0;shadow=0;comic=0;labelBackgroundColor=none;strokeWidth=1;" vertex="1" parent="1">
          <mxGeometry x="1000" y="640" width="280" height="250" as="geometry" />
        </mxCell>
        <mxCell id="VhacFmpfINvfAiVfSPhy-23" value="&lt;p style=&quot;margin:0px;margin-top:4px;text-align:center;&quot;&gt;&lt;b&gt;Notification&lt;/b&gt;&lt;/p&gt;&lt;hr size=&quot;1&quot;&gt;&lt;p style=&quot;margin:0 0 0 4px;line-height:1.6;&quot;&gt;+ Notification(int, String, User): &lt;br&gt;+ Notification(): &lt;/p&gt;&lt;hr size=&quot;1&quot;&gt;&lt;p style=&quot;margin:0 0 0 4px;line-height:1.6;&quot;&gt;+ toString(): String&lt;/p&gt;&lt;p style=&quot;margin:0 0 0 4px;line-height:1.6;&quot;&gt;+ getters()&lt;/p&gt;&lt;p style=&quot;margin:0 0 0 4px;line-height:1.6;&quot;&gt;+ setters()&lt;/p&gt;&lt;hr size=&quot;1&quot;&gt;&lt;p style=&quot;margin:0 0 0 4px;line-height:1.6;&quot;&gt;&lt;br&gt;&lt;/p&gt;" style="verticalAlign=top;align=left;overflow=fill;fontSize=14;fontFamily=Helvetica;html=1;rounded=0;shadow=0;comic=0;labelBackgroundColor=none;strokeWidth=1;" vertex="1" parent="1">
          <mxGeometry x="236" y="-470" width="215" height="250" as="geometry" />
        </mxCell>
        <mxCell id="VhacFmpfINvfAiVfSPhy-24" value="" style="endArrow=classic;html=1;rounded=0;exitX=1.001;exitY=0.036;exitDx=0;exitDy=0;exitPerimeter=0;entryX=0.001;entryY=0.034;entryDx=0;entryDy=0;entryPerimeter=0;" edge="1" parent="1" source="VhacFmpfINvfAiVfSPhy-23" target="node14">
          <mxGeometry width="50" height="50" relative="1" as="geometry">
            <mxPoint x="430" y="-460" as="sourcePoint" />
            <mxPoint x="499" y="-460" as="targetPoint" />
          </mxGeometry>
        </mxCell>
        <mxCell id="VhacFmpfINvfAiVfSPhy-25" value="" style="endArrow=classic;html=1;rounded=0;exitX=-0.004;exitY=0.068;exitDx=0;exitDy=0;exitPerimeter=0;" edge="1" parent="1" source="VhacFmpfINvfAiVfSPhy-22">
          <mxGeometry width="50" height="50" relative="1" as="geometry">
            <mxPoint x="926" y="378" as="sourcePoint" />
            <mxPoint x="917" y="370" as="targetPoint" />
            <Array as="points">
              <mxPoint x="960" y="657" />
              <mxPoint x="960" y="370" />
            </Array>
          </mxGeometry>
        </mxCell>
      </root>
    </mxGraphModel>
  </diagram>
</mxfile>
